<svg width="20" height="21" viewBox="0 0 20 21" fill="none" xmlns="http://www.w3.org/2000/svg">
<g id="&#240;&#159;&#166;&#134; icon &#34;shopping cart&#34;">
<path id="Vector" d="M1 1.5H3L3.4 3.5M3.4 3.5H19L15 11.5H5M3.4 3.5L5 11.5M5 11.5L2.70711 13.7929C2.07714 14.4229 2.52331 15.5 3.41421 15.5H15M15 15.5C13.8954 15.5 13 16.3954 13 17.5C13 18.6046 13.8954 19.5 15 19.5C16.1046 19.5 17 18.6046 17 17.5C17 16.3954 16.1046 15.5 15 15.5ZM7 17.5C7 18.6046 6.10457 19.5 5 19.5C3.89543 19.5 3 18.6046 3 17.5C3 16.3954 3.89543 15.5 5 15.5C6.10457 15.5 7 16.3954 7 17.5Z" stroke="white" stroke-width="1.5" stroke-linecap="round" stroke-linejoin="round"/>
</g>
</svg>
